]When five year old Danny helps deliver a family friend's baby, Anna, he tells his father that he will one day marry her. But it's not until he moves back to America- twenty five years later- that fate steps in and literally knocks him off his bike- and into the arms of a beautiful grown up Anna (Mol)! And while destiny might be on his side, Danny (Law) discovers that time is not... because Anna is not only sure of her feelings for Danny, but she's also engaged to be married to someone else!

Format : MPEG-4
Format profile : Base Media / Version 2
Codec ID : mp42
File size : 900 MiB
Duration : 1h 40mn
Overall bit rate : 1 258 Kbps
Encoded date : UTC 2009-08-14 22:15:00
Tagged date : UTC 2009-08-15 02:36:26
Writing application : HandBrake 0.9.3 2008112300

Video
ID : 1
Format : AVC
Format/Info : Advanced Video Codec
Format profile : Main@L4.0
Format settings, CABAC : Yes
Format settings, ReFrames : 3 frames
Codec ID : avc1
Codec ID/Info : Advanced Video Coding
Duration : 1h 40mn
Bit rate mode : Variable
Bit rate : 1 094 Kbps
Width : 704 pixels
Height : 416 pixels
Display aspect ratio : 16/9
Frame rate mode : Variable
Frame rate : 25.000 fps
Minimum frame rate : 12.500 fps
Maximum frame rate : 25.000 fps
Resolution : 24 bits
Colorimetry : 4:2:0
Scan type : Progressive
Bits/(Pixel*Frame) : 0.149
Stream size : 783 MiB (87%)

Audio
ID : 2
Format : AAC
Format/Info : Advanced Audio Codec
Format version : Version 4
Format profile : LC
Format settings, SBR : No
Codec ID : 40
Duration : 1h 40mn
Bit rate mode : Variable
Bit rate : 160 Kbps
Maximum bit rate : 219 Kbps
Channel(s) : 2 channels
Channel positions : L R
Sampling rate : 48.0 KHz
Resolution : 16 bits
Stream size : 114 MiB (13%)
Language : English
Encoded date : UTC 2009-08-14 22:15:00
Tagged date : UTC 2009-08-15 02:36:18